<svg width="22" height="14" viewBox="0 0 22 14" fill="none" xmlns="http://www.w3.org/2000/svg">
<path d="M7.80947 0.413384C10.7254 -0.341483 13.9139 0.0189129 16.5822 1.42249C17.0186 1.63087 17.4039 1.92705 17.8351 2.14591C19.1338 2.18392 20.4378 2.15246 21.7391 2.1577C21.1507 2.79855 20.5583 3.43547 19.9712 4.07764C21.076 5.10247 21.7614 6.58993 21.7313 8.10359C21.7575 9.39971 21.2595 10.6867 20.4142 11.6617C19.4038 12.8346 17.8691 13.5436 16.3175 13.524C14.9558 13.5462 13.6099 13.0011 12.61 12.0824C12.0464 12.7285 11.4436 13.3392 10.8748 13.98C10.31 13.3366 9.70188 12.7324 9.14883 12.0798C8.14234 12.9906 6.80429 13.5476 5.44002 13.524C4.2671 13.5423 3.09941 13.1413 2.16631 12.4362C0.782388 11.4179 -0.0419369 9.69589 0.0170371 7.9804C0.0249003 6.50474 0.71162 5.07495 1.78101 4.07239C1.18341 3.4381 0.598914 2.79069 0 2.15639C1.30791 2.15508 2.61845 2.1826 3.92505 2.14591C5.13074 1.39366 6.42161 0.751502 7.80947 0.413384ZM6.77022 2.59804C8.90376 3.41057 10.7057 5.34754 10.8709 7.6934C10.9626 7.0093 11.1094 6.32389 11.4357 5.70925C12.1526 4.25587 13.4919 3.19827 14.9728 2.5928C12.3727 1.5221 9.369 1.51947 6.77022 2.59804ZM4.58687 4.51011C2.82682 4.89934 1.52939 6.70919 1.77446 8.50462C1.92779 10.2738 3.53058 11.7665 5.30897 11.7849C7.27084 11.9172 9.11214 10.1965 9.11476 8.23203C9.20519 6.77209 8.29175 5.33706 6.96418 4.7447C6.23159 4.38692 5.37712 4.36202 4.58687 4.51011ZM15.4643 4.51011C13.8078 4.88361 12.5077 6.52178 12.644 8.23596C12.6217 10.207 14.4893 11.9146 16.4433 11.7849C18.3082 11.7678 19.9791 10.1113 19.9883 8.2412C20.0826 6.78127 19.1718 5.33968 17.8416 4.75125C17.1103 4.38823 16.2545 4.3594 15.4643 4.51011Z" fill="#2B2D42"/>
<path d="M5.08206 6.18586C6.13049 5.96176 7.25362 6.77298 7.3388 7.84893C7.50393 8.94191 6.5551 10.0323 5.44377 9.99296C4.31933 10.0467 3.35085 8.93929 3.52908 7.8332C3.61295 7.02591 4.28001 6.3156 5.08206 6.18586Z" fill="#2B2D42"/>
<path d="M15.9672 6.18872C17.1073 5.93317 18.296 6.93179 18.2344 8.10079C18.2737 9.22261 17.1519 10.1649 16.055 9.98009C14.9685 9.87001 14.1639 8.69577 14.4483 7.6421C14.5977 6.90689 15.232 6.31584 15.9672 6.18872Z" fill="#2B2D42"/>
</svg>
